<svg xmlns="http://www.w3.org/2000/svg" xmlns:xlink="http://www.w3.org/1999/xlink" width="200" height="200" class="icon" p-id="9024" t="1553334100113" version="1.1" viewBox="0 0 1024 1024"><defs><style type="text/css"/></defs><path fill="#108EE9" d="M512 930.133333c230.929067 0 418.133333-187.204267 418.133333-418.133333S742.929067 93.866667 512 93.866667 93.866667 281.070933 93.866667 512 281.070933 930.133333 512 930.133333z m0-51.2C309.3504 878.933333 145.066667 714.6496 145.066667 512S309.3504 145.066667 512 145.066667 878.933333 309.3504 878.933333 512 714.6496 878.933333 512 878.933333z" p-id="9025"/><path fill="#108EE9" d="M477.866667 426.666667l68.266666 0 0 324.266666-68.266666 0 0-324.266666Z" p-id="9026"/><path fill="#108EE9" d="M512 332.8m-42.666667 0a42.666667 42.666667 0 1 0 85.333334 0 42.666667 42.666667 0 1 0-85.333334 0Z" p-id="9027"/></svg>