<svg xmlns="http://www.w3.org/2000/svg" xmlns:xlink="http://www.w3.org/1999/xlink" width="200" height="200" class="icon" p-id="7258" t="1552555149195" version="1.1" viewBox="0 0 1024 1024"><defs><style type="text/css"/></defs><path fill="#F5A623" d="M160.4 908.8c-22.7 0-41.1-18-41.7-40.4l81.8-457.2V410c0-22.9 18.7-41.5 41.8-41.5h674.5c22.6 0 41.1 18 41.8 40.4l-81.8 457.2v1.2c0 22.9-18.7 41.5-41.8 41.5H160.4z" p-id="7259"/><path fill="#F5A623" d="M200.6 313.4h654.5v-64.8c0-29.4-22.1-53.2-49.4-53.2H435.3l-74.1-79.8h-247c-27.3 0-49.4 23.8-49.4 53.2v638.3l80.8-440.4c0.1-29.4 24.8-53.3 55-53.3" p-id="7260"/></svg>